<svg xmlns="http://www.w3.org/2000/svg" width="1120" height="480" viewBox="0 0 1120 480">
<style>text{font-family:Arial,Helvetica,sans-serif;fill:#222} .small{font-size:12px} .label{font-size:13px} .title{font-size:22px;font-weight:700} .axis{stroke:#333;stroke-width:1.2} .grid{stroke:#ddd;stroke-width:1}</style>
<text x="560.0" y="36" text-anchor="middle" class="title">Random Forest historical ablation</text>
<line x1="90" y1="390.0" x2="1080" y2="390.0" class="grid" />
<text x="80" y="394.0" text-anchor="end" class="small">0.00</text>
<line x1="90" y1="326.0" x2="1080" y2="326.0" class="grid" />
<text x="80" y="330.0" text-anchor="end" class="small">0.11</text>
<line x1="90" y1="262.0" x2="1080" y2="262.0" class="grid" />
<text x="80" y="266.0" text-anchor="end" class="small">0.22</text>
<line x1="90" y1="198.0" x2="1080" y2="198.0" class="grid" />
<text x="80" y="202.0" text-anchor="end" class="small">0.32</text>
<line x1="90" y1="134.0" x2="1080" y2="134.0" class="grid" />
<text x="80" y="138.0" text-anchor="end" class="small">0.43</text>
<line x1="90" y1="70.0" x2="1080" y2="70.0" class="grid" />
<text x="80" y="74.0" text-anchor="end" class="small">0.54</text>
<line x1="90" y1="70" x2="90" y2="390" class="axis" />
<line x1="90" y1="390" x2="1080" y2="390" class="axis" />
<rect x="122.0" y="88.82352941176475" width="40" height="301.17647058823525" fill="#9467bd" rx="4" />
<text x="142.0" y="82.82352941176475" text-anchor="middle" class="small">0.508</text>
<text x="145.0" y="412" text-anchor="middle" class="small">3-fold SMOTE</text>
<rect x="232.0" y="161.14551083591334" width="40" height="228.85448916408666" fill="#9467bd" rx="4" />
<text x="252.0" y="155.14551083591334" text-anchor="middle" class="small">0.386</text>
<text x="255.0" y="412" text-anchor="middle" class="small">7-fold SMOTE</text>
<rect x="342.0" y="227.2318339100346" width="40" height="162.7681660899654" fill="#9467bd" rx="4" />
<text x="362.0" y="221.2318339100346" text-anchor="middle" class="small">0.275</text>
<text x="365.0" y="412" text-anchor="middle" class="small">5-fold SMOTE</text>
<rect x="452.0" y="152.82352941176472" width="40" height="237.17647058823528" fill="#9467bd" rx="4" />
<text x="472.0" y="146.82352941176472" text-anchor="middle" class="small">0.400</text>
<text x="475.0" y="412" text-anchor="middle" class="small">10-fold SMOTE</text>
<rect x="562.0" y="157.05882352941185" width="40" height="232.94117647058815" fill="#9467bd" rx="4" />
<text x="582.0" y="151.05882352941185" text-anchor="middle" class="small">0.393</text>
<text x="585.0" y="412" text-anchor="middle" class="small">10-fold ADASYN</text>
<rect x="672.0" y="141.34724857685012" width="40" height="248.65275142314988" fill="#9467bd" rx="4" />
<text x="692.0" y="135.34724857685012" text-anchor="middle" class="small">0.419</text>
<text x="695.0" y="412" text-anchor="middle" class="small">5-fold ADASYN</text>
<rect x="782.0" y="70.0" width="40" height="320.0" fill="#9467bd" rx="4" />
<text x="802.0" y="64.0" text-anchor="middle" class="small">0.540</text>
<text x="805.0" y="412" text-anchor="middle" class="small">3-fold ADASYN</text>
<rect x="892.0" y="130.58823529411768" width="40" height="259.4117647058823" fill="#9467bd" rx="4" />
<text x="912.0" y="124.58823529411768" text-anchor="middle" class="small">0.438</text>
<text x="915.0" y="412" text-anchor="middle" class="small">5-fold ADASYN</text>
<rect x="1002.0" y="141.34724857685015" width="40" height="248.65275142314985" fill="#9467bd" rx="4" />
<text x="1022.0" y="135.34724857685015" text-anchor="middle" class="small">0.419</text>
<text x="1025.0" y="412" text-anchor="middle" class="small">7-fold ADASYN</text>
<rect x="90" y="440" width="16" height="12" fill="#9467bd" rx="2" />
<text x="114" y="450" class="label">F1 score</text>
</svg>